<svg width="16" height="17" viewBox="0 0 16 17" fill="none" xmlns="http://www.w3.org/2000/svg">
<path fill-rule="evenodd" clip-rule="evenodd" d="M12.0002 2.50016H14.0002V8.50016H12.0002V2.50016ZM11.3335 2.50016C11.3335 2.13197 11.632 1.8335 12.0002 1.8335H14.0002C14.3684 1.8335 14.6668 2.13197 14.6668 2.50016V12.5002C14.6668 12.8684 14.3684 13.1668 14.0002 13.1668H12.0002C11.632 13.1668 11.3335 12.8684 11.3335 12.5002V2.50016ZM4.00016 5.8335H2.00016V10.1668H4.00016V5.8335ZM2.00016 5.16683C1.63197 5.16683 1.3335 5.46531 1.3335 5.8335V12.5002C1.3335 12.8684 1.63197 13.1668 2.00016 13.1668H4.00016C4.36835 13.1668 4.66683 12.8684 4.66683 12.5002V5.8335C4.66683 5.46531 4.36835 5.16683 4.00016 5.16683H2.00016ZM9.00016 8.50016H7.00016V11.5002H9.00016V8.50016ZM7.00016 7.8335C6.63197 7.8335 6.3335 8.13197 6.3335 8.50016V12.5002C6.3335 12.8684 6.63197 13.1668 7.00016 13.1668H9.00016C9.36835 13.1668 9.66683 12.8684 9.66683 12.5002V8.50016C9.66683 8.13197 9.36835 7.8335 9.00016 7.8335H7.00016ZM1.3335 14.8335C1.3335 14.6494 1.48273 14.5002 1.66683 14.5002H14.3335C14.5176 14.5002 14.6668 14.6494 14.6668 14.8335C14.6668 15.0176 14.5176 15.1668 14.3335 15.1668H1.66683C1.48273 15.1668 1.3335 15.0176 1.3335 14.8335Z" fill="white"/>
</svg>
