<svg width="48" height="48" viewBox="0 0 48 48" fill="none" xmlns="http://www.w3.org/2000/svg">
<path fill-rule="evenodd" clip-rule="evenodd" d="M44 24C44 35.0457 35.0457 44 24 44C12.9543 44 4 35.0457 4 24C4 12.9543 12.9543 4 24 4C35.0457 4 44 12.9543 44 24ZM46 24C46 36.1503 36.1503 46 24 46C11.8497 46 2 36.1503 2 24C2 11.8497 11.8497 2 24 2C36.1503 2 46 11.8497 46 24Z" fill="#7E3399"/>
<path fill-rule="evenodd" clip-rule="evenodd" d="M30.5624 16.2466C30.8913 15.9178 31.4245 15.9178 31.7534 16.2466C32.0822 16.5755 32.0822 17.1087 31.7534 17.4376L25.1909 24L31.7534 30.5624C32.0822 30.8913 32.0822 31.4245 31.7534 31.7534C31.4245 32.0822 30.8913 32.0822 30.5624 31.7534L24 25.1909L17.4376 31.7534C17.1087 32.0822 16.5755 32.0822 16.2466 31.7534C15.9178 31.4245 15.9178 30.8913 16.2466 30.5624L22.8091 24L16.2466 17.4376C15.9178 17.1087 15.9178 16.5755 16.2466 16.2466C16.5755 15.9178 17.1087 15.9178 17.4376 16.2466L24 22.8091L30.5624 16.2466Z" fill="#7E3399"/>
</svg>
