<svg width="18" height="19" viewBox="0 0 18 19" fill="none" xmlns="http://www.w3.org/2000/svg">
<path fill-rule="evenodd" clip-rule="evenodd" d="M6.58531 1.25C5.49421 1.25 4.6097 2.13451 4.6097 3.22561V3.939H3H1.875C1.66789 3.939 1.5 4.1069 1.5 4.314C1.5 4.52111 1.66789 4.689 1.875 4.689H3.0625L4.06769 16.7513C4.10008 17.14 4.42503 17.439 4.8151 17.439H13.1849C13.575 17.439 13.8999 17.14 13.9323 16.7513L14.9375 4.689H16.125C16.3321 4.689 16.5 4.52111 16.5 4.314C16.5 4.1069 16.3321 3.939 16.125 3.939H15H13.3902V3.22561C13.3902 2.13451 12.5057 1.25 11.4146 1.25H6.58531ZM12.0731 3.939V3.22561C12.0731 2.86191 11.7783 2.56707 11.4146 2.56707H6.58531C6.22161 2.56707 5.92677 2.86191 5.92677 3.22561V3.939H6H12H12.0731Z" fill="#E56363"/>
</svg>
