<svg width="24" height="25" viewBox="0 0 24 25" fill="none" xmlns="http://www.w3.org/2000/svg">
<path fill-rule="evenodd" clip-rule="evenodd" d="M10 4.5C10 5.60457 9.10457 6.5 8 6.5C6.89543 6.5 6 5.60457 6 4.5C6 3.39543 6.89543 2.5 8 2.5C9.10457 2.5 10 3.39543 10 4.5ZM10 12.5C10 13.6046 9.10457 14.5 8 14.5C6.89543 14.5 6 13.6046 6 12.5C6 11.3954 6.89543 10.5 8 10.5C9.10457 10.5 10 11.3954 10 12.5ZM8 22.5C9.10457 22.5 10 21.6046 10 20.5C10 19.3954 9.10457 18.5 8 18.5C6.89543 18.5 6 19.3954 6 20.5C6 21.6046 6.89543 22.5 8 22.5Z" fill="#2E459A"/>
<path fill-rule="evenodd" clip-rule="evenodd" d="M18 4.5C18 5.60457 17.1046 6.5 16 6.5C14.8954 6.5 14 5.60457 14 4.5C14 3.39543 14.8954 2.5 16 2.5C17.1046 2.5 18 3.39543 18 4.5ZM18 12.5C18 13.6046 17.1046 14.5 16 14.5C14.8954 14.5 14 13.6046 14 12.5C14 11.3954 14.8954 10.5 16 10.5C17.1046 10.5 18 11.3954 18 12.5ZM16 22.5C17.1046 22.5 18 21.6046 18 20.5C18 19.3954 17.1046 18.5 16 18.5C14.8954 18.5 14 19.3954 14 20.5C14 21.6046 14.8954 22.5 16 22.5Z" fill="#2E459A"/>
</svg>
