<svg width="24" height="24" viewBox="0 0 24 24" fill="none" xmlns="http://www.w3.org/2000/svg">
<path fill-rule="evenodd" clip-rule="evenodd" d="M15 2C15.2761 2 15.5 2.22386 15.5 2.5C15.5 2.77614 15.2761 3 15 3H3.5C3.22386 3 3 3.22386 3 3.5L3 20.5C3 20.7761 3.22386 21 3.5 21H20.5C20.7761 21 21 20.7761 21 20.5V9C21 8.72386 21.2239 8.5 21.5 8.5C21.7761 8.5 22 8.72386 22 9V21C22 21.5523 21.5523 22 21 22H3C2.44772 22 2 21.5523 2 21L2 3C2 2.44772 2.44772 2 3 2H15ZM20.5 3.5C20.0858 3.08579 19.4142 3.08579 19 3.5L7.5 15L6.5 17.5L9 16.5L20.5 5C20.9142 4.58579 20.9142 3.91421 20.5 3.5Z" fill="black"/>
</svg>
