<svg width="40" height="40" viewBox="0 0 40 40" fill="none" xmlns="http://www.w3.org/2000/svg">
<path fill-rule="evenodd" clip-rule="evenodd" d="M16.6665 9.16667L12.4998 5H3.33317C2.4127 5 1.6665 5.74619 1.6665 6.66667V35H33.3459C34.1165 35 34.7867 34.4717 34.9665 33.7223L38.3332 16.2223C38.5847 15.1742 37.7903 14.1667 36.7125 14.1667H33.8265V10.8333C33.8265 9.91286 33.0803 9.16667 32.1599 9.16667H16.6665ZM32.1599 14.1667V10.8333H15.9761L11.8095 6.66667H3.33317V28.0556L6.35985 15.4444C6.5397 14.695 7.20985 14.1667 7.9805 14.1667H32.1599ZM7.9805 15.8333H36.7125L33.3459 33.3333H3.7805L7.9805 15.8333Z" fill="inherit"/>
</svg>
