<svg width="24" height="24" viewBox="0 0 24 24" fill="none" xmlns="http://www.w3.org/2000/svg">
<path fill-rule="evenodd" clip-rule="evenodd" d="M7.50397 2H16.5C17.3284 2 18 2.67157 18 3.5V9C18 9.27614 17.7762 9.5 17.5 9.5C17.2239 9.5 17 9.27614 17 9V3.5C17 3.22386 16.7762 3 16.5 3H8.00001V6.5C8.00001 7.32843 7.32844 8 6.50001 8H3.00001V12V20.5C3.00001 20.7761 3.22387 21 3.50001 21H12.5C12.7762 21 13 21.2239 13 21.5C13 21.7761 12.7762 22 12.5 22H3.50001C2.67159 22 2.00001 21.3284 2.00001 20.5V12V7.50395C1.99995 7.495 2.00012 7.48606 2.00053 7.47714C2.00589 7.358 2.05295 7.24971 2.12745 7.16653C2.13358 7.15969 2.13991 7.15299 2.14646 7.14645L7.14646 2.14645C7.1554 2.13751 7.16462 2.12896 7.17409 2.12081C7.26006 2.04688 7.36717 2.00557 7.47715 2.00051L7.50397 2ZM6.50001 7H3.70712L7.00001 3.70711V6.5C7.00001 6.77614 6.77616 7 6.50001 7ZM17.5 21C19.9853 21 22 18.9853 22 16.5C22 14.0147 19.9853 12 17.5 12C15.0147 12 13 14.0147 13 16.5C13 18.9853 15.0147 21 17.5 21ZM17.5 22C20.5376 22 23 19.5376 23 16.5C23 13.4624 20.5376 11 17.5 11C14.4624 11 12 13.4624 12 16.5C12 19.5376 14.4624 22 17.5 22ZM17.5 13.5C17.7762 13.5 18 13.7239 18 14V17.7929L19.1465 16.6464C19.3417 16.4512 19.6583 16.4512 19.8536 16.6464C20.0488 16.8417 20.0488 17.1583 19.8536 17.3536L17.8536 19.3536C17.8056 19.4015 17.7504 19.4377 17.6914 19.4621C17.6325 19.4865 17.5678 19.5 17.5 19.5C17.3653 19.5 17.243 19.4467 17.153 19.36C17.1506 19.3576 17.1481 19.3552 17.1457 19.3528L15.1465 17.3536C14.9512 17.1583 14.9512 16.8417 15.1465 16.6464C15.3417 16.4512 15.6583 16.4512 15.8536 16.6464L17 17.7929V14C17 13.7239 17.2239 13.5 17.5 13.5Z" fill="black"/>
</svg>
