<svg width="24" height="24" viewBox="0 0 24 24" fill="none" xmlns="http://www.w3.org/2000/svg">
<path fill-rule="evenodd" clip-rule="evenodd" d="M21.8816 11.7147C21.9629 11.8779 21.9885 11.9695 21.9964 12C21.9885 12.0305 21.9629 12.1221 21.8816 12.2853C21.7709 12.5073 21.5929 12.7906 21.3417 13.1184C20.8407 13.7724 20.0961 14.5417 19.1607 15.2759C17.2791 16.7529 14.7411 18 12 18C9.25892 18 6.72093 16.7529 4.83927 15.2759C3.90387 14.5417 3.15928 13.7724 2.65825 13.1184C2.40714 12.7906 2.2291 12.5073 2.11845 12.2853C2.03709 12.1221 2.01153 12.0305 2.00355 12C2.01153 11.9695 2.03709 11.8779 2.11845 11.7147C2.2291 11.4927 2.40714 11.2094 2.65825 10.8816C3.15928 10.2276 3.90387 9.45834 4.83927 8.72412C6.72093 7.24713 9.25892 6 12 6C14.7411 6 17.2791 7.24713 19.1607 8.72412C20.0961 9.45834 20.8407 10.2276 21.3417 10.8816C21.5929 11.2094 21.7709 11.4927 21.8816 11.7147ZM23 12C23 13.5 18.0751 19 12 19C5.92487 19 1 13.5 1 12C1 10.5 5.92487 5 12 5C18.0751 5 23 10.5 23 12ZM15 12C15 13.6569 13.6569 15 12 15C10.3431 15 9 13.6569 9 12C9 10.3431 10.3431 9 12 9C13.6569 9 15 10.3431 15 12ZM16 12C16 14.2091 14.2091 16 12 16C9.79086 16 8 14.2091 8 12C8 9.79086 9.79086 8 12 8C14.2091 8 16 9.79086 16 12Z" fill="#2E459A"/>
</svg>
