<svg width="24" height="24" viewBox="0 0 24 24" fill="none" xmlns="http://www.w3.org/2000/svg">
<path fill-rule="evenodd" clip-rule="evenodd" d="M3.06065 2.14645C2.86538 1.95118 2.5488 1.95118 2.35354 2.14645C2.15828 2.34171 2.15828 2.65829 2.35354 2.85355L20.9393 21.4393C21.1346 21.6346 21.4512 21.6346 21.6464 21.4393C21.8417 21.2441 21.8417 20.9275 21.6464 20.7322L3.06065 2.14645ZM1 11.7929C1 10.9329 2.61868 8.75828 5.1448 7.05902L5.86621 7.78042C5.50601 8.0157 5.16293 8.26295 4.83927 8.51701C3.90387 9.25124 3.15928 10.0205 2.65825 10.6745C2.40714 11.0023 2.2291 11.2856 2.11845 11.5076C2.03709 11.6708 2.01153 11.7624 2.00355 11.7929C2.01153 11.8234 2.03709 11.915 2.11845 12.0782C2.2291 12.3002 2.40714 12.5835 2.65825 12.9113C3.15928 13.5653 3.90387 14.3346 4.83927 15.0688C6.72093 16.5458 9.25892 17.7929 12 17.7929C13.1462 17.7929 14.2569 17.5748 15.2989 17.2131L16.0775 17.9917C14.8166 18.4836 13.4406 18.7929 12 18.7929C5.92487 18.7929 1 13.2929 1 11.7929ZM8 11.7929C8 11.2386 8.11274 10.7107 8.31653 10.2307L9.10161 11.0158C9.03534 11.2637 9 11.5242 9 11.7929C9 13.4497 10.3431 14.7929 12 14.7929C12.2687 14.7929 12.5292 14.7576 12.7771 14.6913L13.5621 15.4764C13.0822 15.6802 12.5543 15.7929 12 15.7929C9.79086 15.7929 8 14.002 8 11.7929ZM10.4379 8.10942L11.2229 8.89451C11.4708 8.82823 11.7313 8.79289 12 8.79289C13.6569 8.79289 15 10.136 15 11.7929C15 12.0616 14.9647 12.3221 14.8984 12.57L15.6835 13.355C15.8873 12.8751 16 12.3472 16 11.7929C16 9.58375 14.2091 7.79289 12 7.79289C11.4457 7.79289 10.9178 7.90563 10.4379 8.10942ZM19.1607 15.0688C18.8371 15.3228 18.494 15.5701 18.1338 15.8054L18.8552 16.5268C21.3813 14.8275 23 12.6528 23 11.7929C23 10.2929 18.0751 4.79289 12 4.79289C10.5594 4.79289 9.18342 5.10218 7.92249 5.59406L8.70112 6.3727C9.74315 6.01095 10.8538 5.79289 12 5.79289C14.7411 5.79289 17.2791 7.04003 19.1607 8.51701C20.0961 9.25124 20.8407 10.0205 21.3417 10.6745C21.5929 11.0023 21.7709 11.2856 21.8816 11.5076C21.9629 11.6708 21.9885 11.7624 21.9964 11.7929C21.9885 11.8234 21.9629 11.915 21.8816 12.0782C21.7709 12.3002 21.5929 12.5835 21.3417 12.9113C20.8407 13.5653 20.0961 14.3346 19.1607 15.0688Z" fill="#2E459A"/>
</svg>
