<svg width="40" height="40" viewBox="0 0 40 40" fill="none" xmlns="http://www.w3.org/2000/svg">
<path fill-rule="evenodd" clip-rule="evenodd" d="M22.2554 3.62896C20.8884 2.80295 19.1668 3.80092 19.1668 5.38239V27.5008H20.8335V17.681L30.6132 12.2643C31.9884 11.5026 32.0246 9.53167 30.6796 8.71903L22.2554 3.62896ZM29.8057 10.8064L20.8335 15.7758V5.38239C20.8335 5.07807 21.1548 4.91124 21.3935 5.05546L29.8177 10.1455C30.0666 10.2959 30.0591 10.666 29.8057 10.8064ZM14.0868 20.8325C14.5963 20.7213 15.0681 21.1173 15.0681 21.6388C15.0681 22.0417 14.7811 22.386 14.3877 22.4728C12.8246 22.8181 11.4348 23.2997 10.2828 23.8757C7.78232 25.1259 6.87028 26.5448 6.87028 27.6164C6.87028 28.688 7.78232 30.1069 10.2828 31.3571C12.6836 32.5575 16.117 33.3481 20.0003 33.3481C23.8837 33.3481 27.317 32.5575 29.7178 31.3571C32.2183 30.1069 33.1304 28.688 33.1304 27.6164C33.1304 26.5448 32.2183 25.1259 29.7178 23.8757C28.5658 23.2997 27.1761 22.8181 25.613 22.4728C25.2195 22.386 24.9326 22.0417 24.9326 21.6388C24.9326 21.1173 25.4044 20.7213 25.9139 20.8325C31.1426 21.9736 34.7971 24.5816 34.7971 27.6164C34.7971 31.7024 28.1723 35.0148 20.0003 35.0148C11.8283 35.0148 5.20361 31.7024 5.20361 27.6164C5.20361 24.5816 8.85812 21.9736 14.0868 20.8325Z" fill="inherit"/>
</svg>
