<svg width="24" height="24" viewBox="0 0 24 24" fill="none" xmlns="http://www.w3.org/2000/svg">
<path fill-rule="evenodd" clip-rule="evenodd" d="M11.177 3L12.823 3L13.2839 4.15238C13.5526 4.82406 14.0957 5.28864 14.6807 5.53138C15.2699 5.77586 15.9786 5.82701 16.6411 5.54309L17.782 5.05411L18.9459 6.21796L18.4569 7.3589C18.173 8.0214 18.2241 8.73009 18.4686 9.31928C18.7114 9.90426 19.1759 10.4474 19.8476 10.7161L21 11.177L21 12.823L19.8476 13.2839C19.1759 13.5526 18.7114 14.0957 18.4686 14.6807C18.2241 15.2699 18.173 15.9786 18.4569 16.6411L18.9459 17.782L17.782 18.9459L16.6411 18.4569C15.9786 18.173 15.2699 18.2241 14.6807 18.4686C14.0957 18.7114 13.5526 19.1759 13.2839 19.8476L12.823 21L11.177 21L10.7161 19.8476C10.4474 19.1759 9.90426 18.7114 9.31928 18.4686C8.73009 18.2241 8.0214 18.173 7.3589 18.4569L6.21797 18.9459L5.05411 17.782L5.54309 16.6411C5.82701 15.9786 5.77586 15.2699 5.53138 14.6807C5.28864 14.0957 4.82406 13.5526 4.15238 13.2839L3 12.823L3 11.177L4.15238 10.7161C4.82406 10.4474 5.28864 9.90426 5.53138 9.31928C5.77586 8.73009 5.82701 8.0214 5.54309 7.3589L5.05411 6.21796L6.21796 5.05411L7.3589 5.54309C8.0214 5.82701 8.73009 5.77586 9.31928 5.53138C9.90426 5.28864 10.4474 4.82406 10.7161 4.15238L11.177 3ZM14.2124 3.78099L13.7514 2.62861C13.5996 2.24895 13.2319 2 12.823 2H11.177C10.7681 2 10.4004 2.24895 10.2486 2.62861L9.7876 3.78099C9.63503 4.16242 9.31547 4.45029 8.93602 4.60774C8.55633 4.76529 8.13066 4.78587 7.75282 4.62394L6.61188 4.13497C6.23604 3.97389 5.8 4.05787 5.51086 4.34701L4.34701 5.51086C4.05787 5.8 3.97389 6.23604 4.13497 6.61188L4.62394 7.75282C4.78587 8.13066 4.76529 8.55633 4.60774 8.93602C4.45029 9.31547 4.16242 9.63503 3.78099 9.78761L2.62861 10.2486C2.24895 10.4004 2 10.7681 2 11.177V12.823C2 13.2319 2.24895 13.5996 2.62861 13.7514L3.78099 14.2124C4.16242 14.365 4.45029 14.6845 4.60774 15.064C4.76529 15.4437 4.78588 15.8693 4.62394 16.2472L4.13497 17.3881C3.97389 17.764 4.05787 18.2 4.34701 18.4891L5.51086 19.653C5.8 19.9421 6.23604 20.0261 6.61188 19.865L7.75282 19.3761C8.13067 19.2141 8.55633 19.2347 8.93602 19.3923C9.31547 19.5497 9.63503 19.8376 9.78761 20.219L10.2486 21.3714C10.4004 21.751 10.7681 22 11.177 22H12.823C13.2319 22 13.5996 21.751 13.7514 21.3714L14.2124 20.219C14.365 19.8376 14.6845 19.5497 15.064 19.3923C15.4437 19.2347 15.8693 19.2141 16.2472 19.3761L17.3881 19.865C17.764 20.0261 18.2 19.9421 18.4891 19.653L19.653 18.4891C19.9421 18.2 20.0261 17.764 19.865 17.3881L19.3761 16.2472C19.2141 15.8693 19.2347 15.4437 19.3923 15.064C19.5497 14.6845 19.8376 14.365 20.219 14.2124L21.3714 13.7514C21.751 13.5996 22 13.2319 22 12.823V11.177C22 10.7681 21.751 10.4004 21.3714 10.2486L20.219 9.7876C19.8376 9.63503 19.5497 9.31547 19.3923 8.93602C19.2347 8.55633 19.2141 8.13067 19.3761 7.75282L19.865 6.61188C20.0261 6.23604 19.9421 5.8 19.653 5.51086L18.4891 4.34701C18.2 4.05787 17.764 3.97389 17.3881 4.13497L16.2472 4.62394C15.8693 4.78587 15.4437 4.76529 15.064 4.60774C14.6845 4.45029 14.365 4.16242 14.2124 3.78099ZM15.5 12C15.5 13.933 13.933 15.5 12 15.5C10.067 15.5 8.5 13.933 8.5 12C8.5 10.067 10.067 8.5 12 8.5C13.933 8.5 15.5 10.067 15.5 12ZM16.5 12C16.5 14.4853 14.4853 16.5 12 16.5C9.51472 16.5 7.5 14.4853 7.5 12C7.5 9.51472 9.51472 7.5 12 7.5C14.4853 7.5 16.5 9.51472 16.5 12Z" fill="black"/>
</svg>
