<svg width="40" height="40" viewBox="0 0 40 40" fill="none" xmlns="http://www.w3.org/2000/svg">
<path fill-rule="evenodd" clip-rule="evenodd" d="M30.0007 5.00065H35.0007V20.0007H30.0007V5.00065ZM28.334 5.00065C28.334 4.08018 29.0802 3.33398 30.0007 3.33398H35.0007C35.9211 3.33398 36.6673 4.08018 36.6673 5.00065V30.0007C36.6673 30.9211 35.9211 31.6673 35.0007 31.6673H30.0007C29.0802 31.6673 28.334 30.9211 28.334 30.0007V5.00065ZM10.0007 13.334H5.00065V24.1673H10.0007V13.334ZM5.00065 11.6673C4.08018 11.6673 3.33398 12.4135 3.33398 13.334V30.0007C3.33398 30.9211 4.08018 31.6673 5.00065 31.6673H10.0007C10.9211 31.6673 11.6673 30.9211 11.6673 30.0007V13.334C11.6673 12.4135 10.9211 11.6673 10.0007 11.6673H5.00065ZM22.5007 20.0007H17.5007V27.5007H22.5007V20.0007ZM17.5007 18.334C16.5802 18.334 15.834 19.0802 15.834 20.0007V30.0007C15.834 30.9211 16.5802 31.6673 17.5007 31.6673H22.5007C23.4211 31.6673 24.1673 30.9211 24.1673 30.0007V20.0007C24.1673 19.0802 23.4211 18.334 22.5007 18.334H17.5007ZM3.33398 35.834C3.33398 35.3737 3.70708 35.0007 4.16732 35.0007H35.834C36.2942 35.0007 36.6673 35.3737 36.6673 35.834C36.6673 36.2942 36.2942 36.6673 35.834 36.6673H4.16732C3.70708 36.6673 3.33398 36.2942 3.33398 35.834Z" fill="inherit"/>
</svg>
