<svg width="40" height="40" viewBox="0 0 40 40" fill="none" xmlns="http://www.w3.org/2000/svg">
<path fill-rule="evenodd" clip-rule="evenodd" d="M30.0002 4.99967H35.0002V19.9997H30.0002V4.99967ZM28.3335 4.99967C28.3335 4.0792 29.0797 3.33301 30.0002 3.33301H35.0002C35.9206 3.33301 36.6668 4.0792 36.6668 4.99967V29.9997C36.6668 30.9201 35.9206 31.6663 35.0002 31.6663H30.0002C29.0797 31.6663 28.3335 30.9201 28.3335 29.9997V4.99967ZM10.0002 13.333H5.00016V24.1663H10.0002V13.333ZM5.00016 11.6663C4.07969 11.6663 3.3335 12.4125 3.3335 13.333V29.9997C3.3335 30.9201 4.07969 31.6663 5.00016 31.6663H10.0002C10.9206 31.6663 11.6668 30.9201 11.6668 29.9997V13.333C11.6668 12.4125 10.9206 11.6663 10.0002 11.6663H5.00016ZM22.5002 19.9997H17.5002V27.4997H22.5002V19.9997ZM17.5002 18.333C16.5797 18.333 15.8335 19.0792 15.8335 19.9997V29.9997C15.8335 30.9201 16.5797 31.6663 17.5002 31.6663H22.5002C23.4206 31.6663 24.1668 30.9201 24.1668 29.9997V19.9997C24.1668 19.0792 23.4206 18.333 22.5002 18.333H17.5002ZM3.3335 35.833C3.3335 35.3728 3.70659 34.9997 4.16683 34.9997H35.8335C36.2937 34.9997 36.6668 35.3728 36.6668 35.833C36.6668 36.2932 36.2937 36.6663 35.8335 36.6663H4.16683C3.70659 36.6663 3.3335 36.2932 3.3335 35.833Z" fill="#808080"/>
</svg>
