<svg width="40" height="40" viewBox="0 0 40 40" fill="none" xmlns="http://www.w3.org/2000/svg">
<path fill-rule="evenodd" clip-rule="evenodd" d="M30.8332 3.33398H15.8398L15.7951 3.33484C15.6118 3.34327 15.4333 3.41212 15.29 3.53534C15.2742 3.54892 15.2588 3.56317 15.2439 3.57806L6.91061 11.9114C6.8997 11.9223 6.88914 11.9335 6.87893 11.9449C6.75475 12.0835 6.67632 12.264 6.66738 12.4625C6.6667 12.4774 6.66641 12.4923 6.66653 12.5072V20.0007V34.1673C6.66653 35.548 7.78582 36.6673 9.16653 36.6673H24.1665H33.3332V15.0007V5.83398C33.3332 4.45327 32.2139 3.33398 30.8332 3.33398ZM31.6665 15.0007V5.83398C31.6665 5.37375 31.2934 5.00065 30.8332 5.00065H16.6665V10.834C16.6665 12.2147 15.5472 13.334 14.1665 13.334H8.3332V20.0007V34.1673C8.3332 34.6276 8.70629 35.0007 9.16653 35.0007H24.1665H31.6665V15.0007ZM14.1665 11.6673H9.51171L14.9999 6.17916V10.834C14.9999 11.2942 14.6268 11.6673 14.1665 11.6673Z" fill="#808080"/>
<path fill-rule="evenodd" clip-rule="evenodd" d="M13.3335 28.1048C13.3335 27.6446 13.7066 27.2715 14.1668 27.2715H26.2002C26.6604 27.2715 27.0335 27.6446 27.0335 28.1048C27.0335 28.5651 26.6604 28.9382 26.2002 28.9382H14.1668C13.7066 28.9382 13.3335 28.5651 13.3335 28.1048Z" fill="#808080"/>
<path fill-rule="evenodd" clip-rule="evenodd" d="M13.3335 22.7943C13.3335 22.334 13.7066 21.9609 14.1668 21.9609H26.2002C26.6604 21.9609 27.0335 22.334 27.0335 22.7943C27.0335 23.2545 26.6604 23.6276 26.2002 23.6276H14.1668C13.7066 23.6276 13.3335 23.2545 13.3335 22.7943Z" fill="#808080"/>
<path fill-rule="evenodd" clip-rule="evenodd" d="M13.3335 17.4993C13.3335 17.0391 13.7066 16.666 14.1668 16.666H18.7585C19.2187 16.666 19.5918 17.0391 19.5918 17.4993C19.5918 17.9596 19.2187 18.3327 18.7585 18.3327H14.1668C13.7066 18.3327 13.3335 17.9596 13.3335 17.4993Z" fill="#808080"/>
</svg>
