<svg width="40" height="40" viewBox="0 0 40 40" fill="none" xmlns="http://www.w3.org/2000/svg">
<path fill-rule="evenodd" clip-rule="evenodd" d="M30.8332 3.33301H15.8398L15.7951 3.33386C15.6118 3.34229 15.4333 3.41115 15.29 3.53436C15.2742 3.54795 15.2588 3.56219 15.2439 3.57708L6.91061 11.9104C6.8997 11.9213 6.88914 11.9325 6.87893 11.9439C6.75475 12.0825 6.67632 12.263 6.66738 12.4616C6.6667 12.4764 6.66641 12.4913 6.66653 12.5063V19.9997V34.1663C6.66653 35.5471 7.78582 36.6663 9.16653 36.6663H24.1665H33.3332V14.9997V5.83301C33.3332 4.4523 32.2139 3.33301 30.8332 3.33301ZM31.6665 14.9997V5.83301C31.6665 5.37277 31.2934 4.99967 30.8332 4.99967H16.6665V10.833C16.6665 12.2137 15.5472 13.333 14.1665 13.333H8.3332V19.9997V34.1663C8.3332 34.6266 8.70629 34.9997 9.16653 34.9997H24.1665H31.6665V14.9997ZM14.1665 11.6663H9.51171L14.9999 6.17819V10.833C14.9999 11.2932 14.6268 11.6663 14.1665 11.6663Z" fill="inherit"/>
<path fill-rule="evenodd" clip-rule="evenodd" d="M13.3335 28.1058C13.3335 27.6456 13.7066 27.2725 14.1668 27.2725H26.2002C26.6604 27.2725 27.0335 27.6456 27.0335 28.1058C27.0335 28.566 26.6604 28.9391 26.2002 28.9391H14.1668C13.7066 28.9391 13.3335 28.566 13.3335 28.1058Z" fill="inherit"/>
<path fill-rule="evenodd" clip-rule="evenodd" d="M13.3335 22.7943C13.3335 22.334 13.7066 21.9609 14.1668 21.9609H26.2002C26.6604 21.9609 27.0335 22.334 27.0335 22.7943C27.0335 23.2545 26.6604 23.6276 26.2002 23.6276H14.1668C13.7066 23.6276 13.3335 23.2545 13.3335 22.7943Z" fill="inherit"/>
<path fill-rule="evenodd" clip-rule="evenodd" d="M13.3335 17.5003C13.3335 17.0401 13.7066 16.667 14.1668 16.667H18.7585C19.2187 16.667 19.5918 17.0401 19.5918 17.5003C19.5918 17.9606 19.2187 18.3337 18.7585 18.3337H14.1668C13.7066 18.3337 13.3335 17.9606 13.3335 17.5003Z" fill="inherit"/>
</svg>
