<svg width="28" height="28" viewBox="0 0 28 28" fill="none" xmlns="http://www.w3.org/2000/svg">
<path fill-rule="evenodd" clip-rule="evenodd" d="M12.9027 2.0013L15.0973 2.0013L15.7119 3.53781C16.0701 4.43338 16.7943 5.05283 17.5743 5.37647C18.3599 5.70245 19.3048 5.77065 20.1881 5.39208L21.7094 4.74012L23.2612 6.29192L22.6092 7.81317C22.2307 8.6965 22.2988 9.64143 22.6248 10.427C22.9485 11.207 23.5679 11.9312 24.4635 12.2894L26 12.904L26 15.0986L24.4635 15.7132C23.5679 16.0714 22.9485 16.7956 22.6248 17.5756C22.2989 18.3612 22.2307 19.3061 22.6092 20.1894L23.2612 21.7107L21.7094 23.2625L20.1881 22.6105C19.3048 22.232 18.3599 22.3002 17.5743 22.6261C16.7943 22.9498 16.0701 23.5692 15.7119 24.4648L15.0973 26.0013L12.9027 26.0013L12.2881 24.4648C11.9299 23.5692 11.2057 22.9498 10.4257 22.6261C9.64013 22.3002 8.6952 22.232 7.81187 22.6105L6.29062 23.2625L4.73882 21.7107L5.39078 20.1894C5.76935 19.3061 5.70115 18.3612 5.37517 17.5756C5.05153 16.7956 4.43208 16.0714 3.53651 15.7132L2 15.0986L2 12.904L3.53651 12.2894C4.43208 11.9312 5.05152 11.207 5.37517 10.427C5.70115 9.64143 5.76935 8.6965 5.39078 7.81317L4.73882 6.29192L6.29062 4.74012L7.81187 5.39208C8.6952 5.77065 9.64013 5.70245 10.4257 5.37647C11.2057 5.05282 11.9299 4.43338 12.2881 3.53781L12.9027 2.0013ZM16.9499 3.04262L16.3353 1.50611C16.1328 0.999903 15.6425 0.667969 15.0973 0.667969H12.9027C12.3575 0.667969 11.8672 0.999903 11.6647 1.50611L11.0501 3.04262C10.8467 3.5512 10.4206 3.93502 9.91469 4.14496C9.40844 4.35503 8.84089 4.38247 8.3371 4.16656L6.81585 3.51459C6.31472 3.29983 5.73333 3.41179 5.34781 3.79731L3.79601 5.34911C3.41049 5.73463 3.29853 6.31602 3.51329 6.81715L4.16526 8.3384C4.38117 8.84219 4.35373 9.40974 4.14366 9.91599C3.93372 10.4219 3.5499 10.848 3.04132 11.0514L1.50481 11.666C0.998603 11.8685 0.666668 12.3588 0.666668 12.904V15.0986C0.666668 15.6438 0.998603 16.1341 1.50481 16.3366L3.04132 16.9512C3.5499 17.1546 3.93372 17.5807 4.14366 18.0866C4.35373 18.5929 4.38117 19.1604 4.16526 19.6642L3.51329 21.1855C3.29853 21.6866 3.41049 22.268 3.79601 22.6535L5.34781 24.2053C5.73333 24.5908 6.31472 24.7028 6.81585 24.488L8.3371 23.836C8.84089 23.6201 9.40844 23.6476 9.91469 23.8576C10.4206 24.0676 10.8467 24.4514 11.0501 24.96L11.6647 26.4965C11.8672 27.0027 12.3575 27.3346 12.9027 27.3346H15.0973C15.6425 27.3346 16.1328 27.0027 16.3353 26.4965L16.9499 24.96C17.1533 24.4514 17.5794 24.0676 18.0853 23.8576C18.5916 23.6476 19.1591 23.6201 19.6629 23.836L21.1842 24.488C21.6853 24.7028 22.2667 24.5908 22.6522 24.2053L24.204 22.6535C24.5895 22.268 24.7015 21.6866 24.4867 21.1855L23.8347 19.6642C23.6188 19.1604 23.6463 18.5929 23.8563 18.0866C24.0663 17.5807 24.4501 17.1546 24.9587 16.9512L26.4952 16.3366C27.0014 16.1341 27.3333 15.6438 27.3333 15.0986V12.904C27.3333 12.3588 27.0014 11.8685 26.4952 11.666L24.9587 11.0514C24.4501 10.848 24.0663 10.4219 23.8563 9.91599C23.6463 9.40974 23.6188 8.84219 23.8347 8.3384L24.4867 6.81715C24.7015 6.31602 24.5895 5.73463 24.204 5.34911L22.6522 3.79731C22.2667 3.41179 21.6853 3.29983 21.1842 3.51459L19.6629 4.16656C19.1591 4.38247 18.5916 4.35503 18.0853 4.14496C17.5794 3.93502 17.1533 3.5512 16.9499 3.04262ZM18.6667 14.0013C18.6667 16.5786 16.5773 18.668 14 18.668C11.4227 18.668 9.33333 16.5786 9.33333 14.0013C9.33333 11.424 11.4227 9.33464 14 9.33464C16.5773 9.33464 18.6667 11.424 18.6667 14.0013ZM20 14.0013C20 17.315 17.3137 20.0013 14 20.0013C10.6863 20.0013 8 17.315 8 14.0013C8 10.6876 10.6863 8.0013 14 8.0013C17.3137 8.0013 20 10.6876 20 14.0013Z" fill="black"/>
</svg>
