<svg width="28" height="28" viewBox="0 0 28 28" fill="none" xmlns="http://www.w3.org/2000/svg">
<path fill-rule="evenodd" clip-rule="evenodd" d="M21.9998 2.00033H25.9998V14.0003H21.9998V2.00033ZM20.6665 2.00033C20.6665 1.26395 21.2635 0.666992 21.9998 0.666992H25.9998C26.7362 0.666992 27.3332 1.26395 27.3332 2.00033V22.0003C27.3332 22.7367 26.7362 23.3337 25.9998 23.3337H21.9998C21.2635 23.3337 20.6665 22.7367 20.6665 22.0003V2.00033ZM5.99984 8.66699H1.99984V17.3337H5.99984V8.66699ZM1.99984 7.33366C1.26346 7.33366 0.666504 7.93061 0.666504 8.66699V22.0003C0.666504 22.7367 1.26346 23.3337 1.99984 23.3337H5.99984C6.73622 23.3337 7.33317 22.7367 7.33317 22.0003V8.66699C7.33317 7.93061 6.73622 7.33366 5.99984 7.33366H1.99984ZM15.9998 14.0003H11.9998V20.0003H15.9998V14.0003ZM11.9998 12.667C11.2635 12.667 10.6665 13.2639 10.6665 14.0003V22.0003C10.6665 22.7367 11.2635 23.3337 11.9998 23.3337H15.9998C16.7362 23.3337 17.3332 22.7367 17.3332 22.0003V14.0003C17.3332 13.2639 16.7362 12.667 15.9998 12.667H11.9998ZM0.666504 26.667C0.666504 26.2988 0.964981 26.0003 1.33317 26.0003H26.6665C27.0347 26.0003 27.3332 26.2988 27.3332 26.667C27.3332 27.0352 27.0347 27.3337 26.6665 27.3337H1.33317C0.96498 27.3337 0.666504 27.0352 0.666504 26.667Z" fill="#2E459A"/>
</svg>
