<svg width="28" height="28" viewBox="0 0 28 28" fill="none" xmlns="http://www.w3.org/2000/svg">
<path fill-rule="evenodd" clip-rule="evenodd" d="M22 1.99935H26V13.9993H22V1.99935ZM20.6667 1.99935C20.6667 1.26297 21.2636 0.666016 22 0.666016H26C26.7364 0.666016 27.3333 1.26297 27.3333 1.99935V21.9993C27.3333 22.7357 26.7364 23.3327 26 23.3327H22C21.2636 23.3327 20.6667 22.7357 20.6667 21.9993V1.99935ZM6 8.66602H2V17.3327H6V8.66602ZM2 7.33268C1.26362 7.33268 0.666668 7.92964 0.666668 8.66602V21.9993C0.666668 22.7357 1.26362 23.3327 2 23.3327H6C6.73638 23.3327 7.33333 22.7357 7.33333 21.9993V8.66602C7.33333 7.92964 6.73638 7.33268 6 7.33268H2ZM16 13.9993H12V19.9993H16V13.9993ZM12 12.666C11.2636 12.666 10.6667 13.263 10.6667 13.9993V21.9993C10.6667 22.7357 11.2636 23.3327 12 23.3327H16C16.7364 23.3327 17.3333 22.7357 17.3333 21.9993V13.9993C17.3333 13.263 16.7364 12.666 16 12.666H12ZM0.666668 26.666C0.666668 26.2978 0.965145 25.9993 1.33333 25.9993H26.6667C27.0349 25.9993 27.3333 26.2978 27.3333 26.666C27.3333 27.0342 27.0349 27.3327 26.6667 27.3327H1.33333C0.965144 27.3327 0.666668 27.0342 0.666668 26.666Z" fill="black"/>
</svg>
