<svg width="28" height="28" viewBox="0 0 28 28" fill="none" xmlns="http://www.w3.org/2000/svg">
<path d="M17.9337 14.467C19.5337 12.7337 20.667 10.267 20.667 8.00033C20.667 4.00033 18.667 0.666992 14.0003 0.666992C9.33366 0.666992 7.33366 4.00033 7.33366 8.00033C7.33366 10.267 8.53366 12.7337 10.067 14.467C4.66699 15.8003 0.666992 19.867 0.666992 24.667C0.666992 26.2003 1.93366 27.3337 3.40033 27.3337C3.66699 27.3337 3.86699 27.3337 4.13366 27.267C7.33366 26.4003 10.667 26.0003 14.0003 26.0003C17.3337 26.0003 20.667 26.4003 23.867 27.267C24.067 27.3337 24.3337 27.3337 24.6003 27.3337C26.067 27.3337 27.3337 26.2003 27.3337 24.667C27.3337 19.867 23.3337 15.8003 17.9337 14.467ZM8.66699 8.00033C8.66699 2.80033 12.0003 2.00033 14.0003 2.00033C16.0003 2.00033 19.3337 2.80033 19.3337 8.00033C19.3337 10.267 17.9337 12.7337 16.3337 14.1337C15.5337 14.867 14.7337 15.3337 14.0003 15.3337C13.267 15.3337 12.467 14.867 11.667 14.1337C10.067 12.7337 8.66699 10.267 8.66699 8.00033ZM24.6003 26.0003C24.467 26.0003 24.3337 26.0003 24.267 25.9337C20.9337 25.067 17.467 24.6003 14.067 24.6003C10.667 24.6003 7.13366 25.067 3.80033 26.0003C3.66699 26.0003 3.53366 26.0003 3.40033 26.0003C2.73366 26.0003 2.00033 25.467 2.00033 24.667C2.00033 20.267 6.00033 16.5337 11.267 15.6003C12.1337 16.267 13.1337 16.667 14.0003 16.667C14.867 16.667 15.8003 16.267 16.7337 15.6003C22.0003 16.5337 26.0003 20.267 26.0003 24.667C26.0003 25.5337 25.267 26.0003 24.6003 26.0003Z" fill="black"/>
</svg>
