<svg width="28" height="28" viewBox="0 0 28 28" fill="none" xmlns="http://www.w3.org/2000/svg">
<path d="M17.9333 14.466C19.5333 12.7327 20.6667 10.266 20.6667 7.99935C20.6667 3.99935 18.6667 0.666016 14 0.666016C9.33333 0.666016 7.33333 3.99935 7.33333 7.99935C7.33333 10.266 8.53334 12.7327 10.0667 14.466C4.66667 15.7993 0.666668 19.866 0.666668 24.666C0.666668 26.1994 1.93333 27.3327 3.4 27.3327C3.66667 27.3327 3.86667 27.3327 4.13333 27.266C7.33333 26.3994 10.6667 25.9993 14 25.9993C17.3333 25.9993 20.6667 26.3994 23.8667 27.266C24.0667 27.3327 24.3333 27.3327 24.6 27.3327C26.0667 27.3327 27.3333 26.1994 27.3333 24.666C27.3333 19.866 23.3333 15.7993 17.9333 14.466ZM8.66667 7.99935C8.66667 2.79935 12 1.99935 14 1.99935C16 1.99935 19.3333 2.79935 19.3333 7.99935C19.3333 10.266 17.9333 12.7327 16.3333 14.1327C15.5333 14.866 14.7333 15.3327 14 15.3327C13.2667 15.3327 12.4667 14.866 11.6667 14.1327C10.0667 12.7327 8.66667 10.266 8.66667 7.99935ZM24.6 25.9993C24.4667 25.9993 24.3333 25.9994 24.2667 25.9327C20.9333 25.066 17.4667 24.5993 14.0667 24.5993C10.6667 24.5993 7.13333 25.066 3.8 25.9993C3.66667 25.9993 3.53333 25.9993 3.4 25.9993C2.73333 25.9993 2 25.466 2 24.666C2 20.266 6 16.5327 11.2667 15.5993C12.1333 16.266 13.1333 16.666 14 16.666C14.8667 16.666 15.8 16.266 16.7333 15.5993C22 16.5327 26 20.266 26 24.666C26 25.5327 25.2667 25.9993 24.6 25.9993Z" fill="inherit"/>
</svg>
